<svg width="320" height="110.93977862878194" viewBox="0 0 320 110.93977862878194" class="css-1j8o68f">
	<defs id="SvgjsDefs1292">
	</defs>
	<g id="SvgjsG1293" featurekey="symbolFeature-0" transform="matrix(1.2326383974497084,0,0,1.2326383974497084,-11.630645591915549,-6.163762122005358)" fill="#ffcd38">
		<g xmlns="http://www.w3.org/2000/svg">
			<path fill="none" d="M53.432,33.512c2.911,9.625,8.481,16.592,9.244,28.367c1.153-0.78,2.363-1.504,3.352-2.448   c2.326-0.996,4.685-1.961,6.343-3.623c0.271-0.131,0.554,0.316,0.544-0.092c-0.002-2.173-0.271-4.078-0.36-6.161   c-1.694,1.186-3.783,2.494-5.893,3.354c-0.545,0.222-1.717,1.021-2.176,0c0.211-0.591,0.854-0.412,1.27-0.545   c2.638-0.847,4.954-2.598,6.799-4.259c0.064-0.518-0.099-0.809-0.094-1.267c-1.863,1.069-4.105,2.058-5.89,3.171   c-0.526,0.327-1.317,1.134-1.994,0.543c0.103-0.836,1.126-1.084,1.722-1.449c2.023-1.241,4.292-2.087,6.071-3.444   c0.05-0.624-0.232-0.916-0.182-1.541c-2.08,1.117-4.133,2.872-6.343,3.988c-0.614,0.311-1.881,1.108-2.447,0.091   c0.098-0.547,0.905-0.385,1.358-0.543c1.625-0.568,4.071-2.37,5.621-3.445c0.967-0.671,2.066-1.227,1.539-2.628   c-1.814,1.017-3.845,2.189-5.799,3.172c-0.517,0.26-1.946,1.057-2.085,0.272c-0.077-0.441,1.271-0.998,1.813-1.269   c1.543-0.776,2.745-1.295,4.079-2.086c0.934-0.552,2.343-1.109,1.63-2.354c-1.788,0.924-3.567,2.278-5.616,3.081   c-0.497,0.193-1.615,0.999-1.997,0c0.393-0.597,1.282-0.607,1.997-0.905c1.418-0.598,2.525-1.37,3.804-2.176   c0.975-0.614,2.122-1.222,1.451-2.721c-1.647,0.774-3.408,1.746-4.893,2.721c-0.431,0.282-1.087,1.104-1.63,0.452   c-0.066-0.739,0.809-0.911,1.358-1.268c0.502-0.329,1.053-0.655,1.63-0.998c0.578-0.341,3.131-1.501,3.263-2.084   c0.124-0.547-0.468-1.298-0.635-1.904c-1.364,1.147-3.126,2.316-4.985,3.081c-0.389,0.163-1.788,0.908-1.811,0   c-0.015-0.535,1.266-0.706,1.721-0.905c1.898-0.834,3.403-2.054,4.803-3.082c-0.108-0.496-0.359-0.852-0.452-1.359   c-0.925,0.585-1.617,1.025-2.721,1.721c-0.228,0.145-2.791,2.054-2.988,0.816c-0.1-0.612,0.872-0.548,1.269-0.724   c1.13-0.504,3.016-1.965,3.987-2.9c-0.177-0.489-0.557-0.773-0.725-1.269c-1.17,0.934-2.59,2.055-3.988,2.81   c-0.408,0.22-1.091,0.898-1.542,0.273c-0.059-0.649,0.685-0.873,1.087-1.089c1.49-0.795,2.835-1.7,3.808-2.899   c-0.28-0.356-0.431-0.841-0.817-1.09c-0.623,0.539-1.169,0.943-1.993,1.542c-0.322,0.234-2.066,1.666-2.265,0.634   c-0.107-0.548,1.051-0.805,1.358-0.997c1.019-0.631,3.038-2.03,1.994-2.989c-0.441,0.214-1.022,0.746-1.631,1.267   c-0.494,0.424-1.253,1.389-1.994,0.636c0-0.092-0.073-0.108-0.091-0.183c0.593-0.816,3.048-1.745,3.173-2.901   c0.054-0.513-0.473-1.253-0.544-1.811c-0.324-2.573-0.102-5.866-0.363-8.609c-2.339,0.11-5.271,0.407-8.155,0.271   c0.378,2.432,0.483,5.742-0.363,7.703c-0.174,0.37-1.078,0.815-1.09,1.451c-0.008,0.492,0.909,1.435,1.269,2.265   C57.36,27.738,58.428,34.849,53.432,33.512z M68.204,57.256c-0.717,0.303-1.496,0.546-2.175,0.906   c-0.612,0.326-1.319,1.049-1.994,0.635c0.313-1.242,1.834-1.523,2.9-1.994c1.441-0.636,2.945-1.232,4.078-2.084   c0.024-0.099,0.18-0.061,0.182-0.182c0.329-0.06,0.483,0.061,0.634,0.182C71.436,56.144,69.552,56.688,68.204,57.256z    M65.485,55.443c2.097-0.905,5.095-2.644,6.524-4.167c0.313-0.072,0.383,0.101,0.546,0.181c-0.43,1.732-2.479,2.546-3.991,3.354   c-0.716,0.385-1.532,0.902-2.354,1.27c-0.772,0.344-1.813,1.01-2.628,0.452C63.753,55.637,64.863,55.713,65.485,55.443z    M64.578,17.563c-0.348,1.048-1.418,2.7-2.628,1.994c-0.067-0.551,0.37-0.596,0.726-0.725   C63.115,18.291,63.646,17.024,64.578,17.563z M64.035,19.828c-0.315,0.923-1.117,1.358-2.085,1.631   C61.419,20.515,63.318,19.231,64.035,19.828z M63.671,15.48c-0.424,0.813-0.928,1.548-1.902,1.812   C61.281,16.389,62.841,14.766,63.671,15.48z M62.312,23.091c0.628-0.464,1.332-1.024,1.814-1.54   c0.331-0.059,0.482,0.061,0.633,0.182c0.068,0.859-0.858,1.241-1.358,1.63c-0.514,0.401-1.1,1.069-1.813,0.908   C61.18,23.567,61.985,23.335,62.312,23.091z">
			</path>
			<path fill="none" d="M70.832,64.959c0.049,0.183,0.092,0.511,0.453,0.545c-0.065-1.297-0.036-3.466-0.453-4.713   C70.989,62.155,70.455,63.58,70.832,64.959z">
			</path>
			<path fill="none" d="M72.826,56.624c-0.683,0.919-1.838,1.364-2.81,1.993C71.787,58.845,72.808,57.844,72.826,56.624z">
			</path>
			<path fill="none" d="M17.455,60.519c-0.1-1.018-0.027-2.207-0.455-2.9c-1.302,3.5-4.635,5.454-4.713,9.879   c1.484-2.293,3.186-4.368,4.624-6.707C16.975,60.585,17.537,60.874,17.455,60.519z">
			</path>
			<path fill="none" d="M56.424,12.036c2.306,0.476,6.57-0.461,8.79-0.455c0.189-0.567,0.337-1.173,0.272-1.993   c-2.785,0.807-7.417,1.749-10.514,0.544C55.107,10.979,55.699,11.886,56.424,12.036z">
			</path>
			<path fill="none" d="M40.473,80.82c3.672-3.575,7.973-7.011,11.6-10.332c-2.359,1.332-4.584,3.126-6.706,4.619   c-0.657,0.464-1.436,1.4-2.358,1.091c-0.148-0.78,0.795-1.112,1.269-1.452c3.976-2.856,8.31-5.571,11.962-8.609   c0.378-0.103,0.355,0.19,0.636,0.182c0.594-0.584,1.156-1.14,1.993-1.721c0.63-0.436,1.992-0.942,2.174-1.631   c0.198-0.736-0.316-2.299-0.451-3.263c-0.483-3.427-1.09-6.688-2.084-9.334c-0.491-1.305-1.275-2.605-1.905-3.988   c-1.855-4.078-3.52-8.701-5.165-12.688c-4.015,0.55-8.459,0.534-12.869,0.182c-0.913-0.072-1.839,0.075-2.719,0   c-0.754-0.064-1.444-0.304-2.175-0.363c-2.442-0.195-4.7,0.166-7.159,0.363c-0.597,0.048-1.215-0.053-1.814,0   c-1.671,0.147-3.718,0.571-5.437,0.725c-0.577,0.052-1.216,0.098-1.722,0c-0.525-0.103-0.929-0.736-1.268-0.544   c-0.013,1.596,0.015,3.013,0.181,4.259c0.237,1.77,1.169,3.342,1.452,5.075c0.456,2.825,0.365,5.91,0.725,8.971   c0.144,1.233,0.055,2.808,0.179,4.35c0.232,2.857,1.01,5.694,0.726,8.791c-0.134,1.443-0.023,3.334-0.183,4.985   c-0.117,1.219-0.502,2.521-0.723,3.804c-0.23,1.322-0.43,2.609-0.817,3.808c-1.044,3.241-1.604,6.514-2.992,9.335   c0.52,0.085,0.934,0.274,1.542,0.272c0.259-0.945,0.757-1.861,1.087-2.9c0.284-0.898,0.485-2.377,1.358-2.717   c0.666,0.533,0.051,1.346-0.179,1.993c-0.487,1.361-0.835,2.813-1.452,3.807c1.517-0.008,2.45,0.57,3.897,0.633   c1.197-1.795,1.732-4.454,2.448-6.615c0.224-0.679,0.249-1.819,1.086-1.993c0.58,0.616,0.038,1.524-0.182,2.175   c-0.754,2.234-1.305,4.682-2.264,6.616c0.71-0.049,1.186,0.139,1.812,0.178c0.585-2.179,1.531-4.719,1.812-7.16   c0.067-0.575-0.233-1.648,0.543-1.808c0.746,0.442,0.371,1.542,0.273,2.266c-0.233,1.726-0.652,3.319-1.089,4.715   c-0.236,0.761-0.623,1.501-0.544,2.089c0.951,0.494,0.757-0.926,1.359-1.077c0.829-1.964,1.771-4.519,2.176-6.869   c0.084-0.484-0.258-1.344,0.546-1.411c0.766,0.634,0.266,1.865,0.089,2.615c-0.625,2.645-1.4,5.087-2.356,7.314   c0.634,0,1.269,0,1.903,0c-0.117,0-0.117-0.779,0-1.045c0.716-2.567,1.725-6.019,1.995-8.923c0.067-0.723-0.263-1.637,0.543-1.953   c0.634,0.543,0.457,1.617,0.361,2.433c-0.353,3.077-1.421,6.148-2.263,9.489c3.231,0,6.463,0,9.694,0   c0.567-2.227,0.997-4.054,1.542-5.955C40.042,82.902,40.447,81.74,40.473,80.82z M42.647,49.554   c0.371-0.973,1.355-1.476,2.085-2.086c2.289-1.907,4.365-4.279,6.253-6.705c0.314-0.073,0.384,0.099,0.546,0.181   c-0.159,1.089-0.995,2.014-1.722,2.81c-1.452,1.583-2.912,3.011-4.623,4.441C44.478,48.785,43.691,50.11,42.647,49.554z    M58.779,62.151c-0.34,1.557-2.038,2.117-3.171,2.99c-2.863,2.202-5.798,4.331-8.702,6.617c-0.483,0.378-1.109,1.253-1.902,0.723   c0.085-0.779,0.969-1.069,1.449-1.451c2.63-2.089,5.497-4.1,8.247-6.252c1.211-0.947,2.494-1.752,3.535-2.81   C58.549,61.898,58.617,62.07,58.779,62.151z M57.782,60.428c0.295,0.726-0.592,1.128-0.997,1.451   c-2.299,1.834-4.858,3.727-7.161,5.709c-0.419,0.362-0.89,0.8-1.358,1.179c-0.391,0.314-1.074,0.924-1.63,0.544   c-0.181-0.718,0.681-1.025,1.086-1.359c2.696-2.215,5.741-4.388,8.518-6.708C56.675,60.882,57.043,60.07,57.782,60.428z    M55.608,53.088c0.329-0.059,0.482,0.061,0.632,0.181c-0.05,1.068-1.055,1.521-1.812,2.085c-0.494,0.366-1.007,1.048-1.54,0.634   C53.209,54.437,54.969,54.325,55.608,53.088z M53.432,53.088c-0.575,0.534-1.362,1.547-2.265,1.178   c-0.219-0.707,0.599-0.862,1.086-1.269c0.906-0.754,1.826-2.598,2.9-2.084C55.049,51.863,54.081,52.485,53.432,53.088z    M54.793,48.375c-0.197,1.357-1.687,2.021-2.629,2.81c-0.439,0.369-0.944,0.887-1.45,1.269c-0.448,0.335-1.091,1.069-1.721,0.634   c0.317-1.104,1.494-1.632,2.264-2.265c0.835-0.688,1.586-1.384,2.449-1.995c0.126-0.235,0.304-0.419,0.452-0.633   C54.487,48.135,54.64,48.256,54.793,48.375z M53.705,46.201c-0.511,1.439-1.868,2.595-2.992,3.624   c-0.525,0.483-1.154,1.036-1.721,1.541c-0.526,0.467-1.156,1.352-1.994,0.906c-0.018-0.873,0.984-1.115,1.451-1.54   c1.575-1.436,3.114-3.08,4.62-4.711C53.401,45.96,53.552,46.08,53.705,46.201z M50.803,45.837   c-1.123,1.411-2.143,2.554-3.624,3.717c-0.611,0.48-1.291,1.496-2.174,1.178c-0.003-0.861,0.871-1.358,1.449-1.813   c0.621-0.486,1.224-0.965,1.813-1.54c1.253-1.227,2.21-2.576,3.264-3.897c0.345-0.043,0.576,0.025,0.723,0.182   C52.078,44.516,51.362,45.138,50.803,45.837z M48.356,38.862c0.033-0.121,0.161-0.143,0.182-0.272   c0.333-0.061,0.484,0.059,0.634,0.179c-0.178,1.431-1.381,2.247-2.354,3.082c-0.468,0.399-1.044,1.074-1.724,0.816   c-0.182-0.866,0.829-1.259,1.359-1.722c0.582-0.501,1.084-1.083,1.632-1.539C48.124,39.174,48.211,38.988,48.356,38.862z    M47.178,38.135c-0.434,0.895-1.077,1.581-2.174,1.813c-0.09-0.121-0.149-0.274-0.273-0.363   C45.239,38.926,46.219,37.456,47.178,38.135z M42.83,46.745c1.994-1.915,4.225-4.199,5.979-6.436   c0.83-1.052,1.271-2.317,2.176-3.351c0.314-0.072,0.384,0.1,0.546,0.181c-1.152,3.892-4.324,6.179-6.799,8.883   c-0.398,0.434-0.821,0.917-1.269,1.358c-0.353,0.347-0.744,1.166-1.449,0.905C41.702,47.578,42.456,47.102,42.83,46.745z    M20.716,85.984c-0.322,0.687-0.608,1.836-1.539,1.905c-0.221-1.357,0.903-2.509,1.449-3.807c0.449-1.071,0.834-2.378,1.27-3.353   c0.03-0.12,0.159-0.145,0.182-0.272c0.222-0.013,0.436-0.015,0.543,0.089C22.48,82.408,21.546,84.215,20.716,85.984z    M32.045,87.463c-0.16,0.646-0.327,1.749-0.907,1.65c-0.775-0.134-0.104-1.459,0-1.856c0.547-2.067,0.917-4.63,1.268-6.523   c0.053-0.129,0.144-0.084,0.273-0.084c0.122,0,0.241,0,0.363,0C33.282,81.763,32.599,85.231,32.045,87.463z M33.314,88.522   c-0.137-1.234,0.508-2.706,0.816-4.349c0.325-1.737,0.47-3.779,1.268-4.805c0.211-0.027,0.348,0.015,0.453,0.092   c-0.314,2.159-0.724,5.032-1.359,7.341C34.316,87.439,34.219,88.607,33.314,88.522z M35.489,88.705   c-0.683-0.256-0.313-1.123-0.182-1.631c0.397-1.534,0.887-3.48,1.269-5.077c0.033-0.117,0.159-0.143,0.182-0.273   c0.223-0.009,0.436-0.011,0.543,0.093c0.022,1.749-0.615,3.689-1.086,5.437C36.077,87.757,36.155,88.605,35.489,88.705z    M38.298,87.617c-0.067,0.469,0.054,1.369-0.636,1.448c-0.66-0.254-0.332-1.109-0.272-1.631c0.199-1.689,0.841-3.435,1.179-4.896   c0.033-0.116,0.161-0.141,0.182-0.272c0.223-0.009,0.436-0.011,0.543,0.094C39.355,84.029,38.556,85.771,38.298,87.617z">
			</path>
			<path fill="none" d="M70.017,65.141c-0.248-1.576-0.147-2.555-0.09-4.078c-0.396-0.092-1.141,0.248-1.541,0.452   c0.017,0.437,0.042,0.863,0.179,1.18c0.11-0.467-0.059-1.21,0.636-1.09c0.132,0.051,0.222,0.141,0.272,0.273   c0.01,0.681,0.088,1.003,0.091,1.541C69.566,64.064,69.193,65.253,70.017,65.141z">
			</path>
			<path fill="none" d="M53.522,69.673c0.157-0.235,0.904-0.75,0.725-0.725C54.034,69.158,53.41,69.435,53.522,69.673z">
			</path>
			<path fill="none" d="M16.548,47.56c-0.133-0.321-0.058-0.847-0.272-1.087c-0.438,1.073-1.065,2.437-0.814,3.897   C15.967,49.579,15.756,48.067,16.548,47.56z">
			</path>
			<path fill="none" d="M16.004,75.745c0.338-0.187,0.533,0.424,0.544,0c0.219-0.446,0.191-1.139,0.363-1.631   c-1.268,1.262-2.507,2.609-3.625,3.895c-0.364,0.422-0.619,1.16-1.268,1.269c-0.721-0.696,0.247-1.466,0.633-1.903   c1.504-1.7,3.079-3.472,4.531-4.985c-0.032-0.579,0.389-1.179,0.181-1.631c-1.332,1.87-3.056,3.347-4.53,5.076   c0.15,1.023-1.147,1.515-1.269,0.634c-0.121-0.849,1.411-2.172,2.175-2.993c1.407-1.513,2.514-2.472,3.261-3.895   c0.129-0.174,0.441-0.163,0.634-0.271c-0.059-0.968,0.122-2.175-0.09-2.992c-0.61,1.079-1.458,2.05-2.175,3.082   c-0.718,1.036-1.143,2.426-2.355,2.989c-0.703-0.597,0.227-1.267,0.543-1.719c1.201-1.726,2.23-3.691,3.535-5.077   c0.395-0.128,0.418,0.31,0.635,0.092c0.16-1.345,0.128-3.025-0.272-4.08c-1.802,2.822-3.826,5.418-5.619,8.249   c-0.635,3.387-0.847,7.51,0,10.782C13.44,79.224,14.698,77.458,16.004,75.745z">
			</path>
			<path fill="none" d="M59.685,8.954c2.3-0.186,4.753-0.677,6.072-1.721c-2.75-0.668-7.549-0.564-9.877,0.362   c0.234,0.369,0.475,0.732,0.633,1.178C57.51,8.994,58.628,9.039,59.685,8.954z">
			</path>
			<path fill="none" d="M14.915,53.722c0.079-0.257,0.464-0.681,0.273-0.906C14.956,52.92,14.825,53.596,14.915,53.722z">
			</path>
			<path fill="none" d="M19.993,32.7c0.575-0.091,1.158-0.172,1.72-0.271c0.102-0.708,0.356-1.631,0.455-2.536   c0.06-0.561-0.195-1.531,0.544-1.624c0.999,0.854-0.103,2.644,0.089,4.09c0.567-0.044,1.108-0.107,1.674-0.145   c-0.12-0.015-0.252-0.068-0.404-0.187c0.382-1.38,0.122-2.601,0.543-3.715c0.152,0,0.302,0,0.453,0   c0.347,0.943,0.384,3.722-0.454,3.895c0.456-0.027,0.927-0.04,1.451-0.004c0.16-0.079-0.234-0.316-0.183-0.586   c0.693-0.787-0.203-3.522,0.817-3.523c0.536-0.001,0.36,1.017,0.362,1.376c0.01,0.983,0.062,2.184-0.362,3.297   c0.362,0,0.724,0,1.088,0c0.044,0-0.164-0.474-0.092-0.788c1.019-0.82-0.129-3.081,0.997-3.594c0.829,0.835,0.397,3.269-0.09,4.382   c0.514,0,1.028,0,1.542,0c0.052-1.114,0.265-1.529,0.361-2.21c0.08-0.565-0.163-2.054,0.544-2.119c0.869,0.702,0.202,2.265,0,3.352   c0.365-0.058,0.963,0.117,1.18-0.09c-0.16-0.085-0.201-0.284-0.183-0.543c0.703-0.848,0.023-2.62,0.997-3.083   c0.92,0.773,0.096,2.827-0.271,3.716c0.572-0.06,1.386,0.12,1.81-0.09c-0.202-0.039-0.036-0.447-0.09-0.635   c0.599-0.933,0.19-2.686,0.362-3.533c0.078-0.386,0.147-0.757,0.544-0.726c0.5,0.038,0.354,0.818,0.363,1.269   c0.02,1.142-0.062,3.055-0.635,3.898c0.639-0.035,0.994,0.213,1.632,0.179c0.074-1.101,0.085-2.1,0.089-3.081   c0.003-0.555-0.173-1.518,0.544-1.722c0.612,0.463,0.457,1.299,0.455,1.906c-0.004,0.614-0.095,1.298-0.091,2.085   c-0.072,0.292-0.268,0.463-0.271,0.82c0.519-0.043,0.97-0.017,1.407,0.024c-0.03-1.228,0.357-2.901,0.586-3.871   c0.152,0,0.303,0,0.453,0c0.372,0,0.187,1.488,0,2.599c-0.067,0.404-0.138,0.958-0.31,1.347c0.336,0.039,0.673,0.076,1.034,0.089   c-0.027-0.275-0.279-0.311-0.179-0.711c0.649-0.905,0.09-3.122,1.087-3.689c0.565,0.214,0.42,1.143,0.362,1.685   c-0.067,0.626-0.272,1.678-0.453,2.193c-0.115,0.326-0.467,0.939-0.272,0.939c0.393,0,0.786,0,1.179,0   c0.57-1.114,0.221-2.898,0.454-4.059c0.053-0.264,0.089-0.97,0.544-0.885c0.426,0.038,0.414,0.669,0.451,0.921   c0.161,1.068-0.335,2.91-0.451,4.024c0.421,0,0.845,0,1.269,0c0.001,0,0.237-1.554,0.272-2.209   c0.049-1.005-0.481-3.092,0.179-3.209c0.788-0.138,0.719,1.506,0.726,1.813c0.014,0.848-0.166,1.366-0.091,2.361   c-0.072,0.29-0.268,0.461-0.271,0.819c1.688-0.035,3.58,0.144,4.893-0.264c-0.018-0.914,0.053-4.581,0.816-4.515   c0.54,0.046,0.403,0.975,0.363,1.481c-0.098,1.123-0.473,2.103-0.183,3.05c0.222-0.14,0.589-0.013,0.906-0.06   c0.607-1.204-0.149-3.53,1.179-4.015c0.619,1.068-0.246,2.521-0.18,4.748c0.18,0,0.361,0,0.543,0   c0.536-1.114-0.485-3.154,0.634-3.841c0.874,0.579,0.067,1.506,0.543,2.049c0.811-2.648-0.148-5.469-1.63-6.887   c-11.271,0.374-23.08-0.299-34.617,0.09C20.247,25.88,20.993,29.87,19.993,32.7z M48.808,30.16c0.132-0.949-0.162-1.76,0.273-2.627   c0.225-0.014,0.437-0.015,0.543,0.089c0.166,1.273,0.345,2.682-0.36,3.897C48.429,31.529,48.708,30.9,48.808,30.16z M47.27,28.314   c0.15,0,0.302,0,0.452,0c0.301,1.114,0.533,2.227-0.182,3.341c-0.121,0-0.241,0-0.362,0c-0.404,0-0.102-0.585-0.091-0.991   C47.111,29.832,46.814,29.427,47.27,28.314z">
			</path>
			<path fill="none" d="M15.732,28.802c0.486-0.247,0.638-0.713,1.268-0.635c1.862,0.233-0.687,3.879,0.908,4.623   c1.663-1.935,0.493-8.308-1.904-8.068c-1.489,0.149-1.349,2.994-1.359,4.896c-0.996,1.125-0.559,4.441-0.091,5.799   C14.341,32.607,15.105,30.771,15.732,28.802z">
			</path>
			<path fill="none" d="M16.82,51.546c-0.542,2.149-2.147,3.715-2.538,5.71c0.439-0.542,0.738-1.246,1.087-1.903   c0.325-0.607,0.532-1.535,1.27-1.721c0.625,0.514,0.04,1.297-0.183,1.721c-1.232,2.359-3.099,4.16-3.353,7.068   c1.376-2.068,2.5-4.386,3.988-6.342C17.162,54.406,16.992,52.976,16.82,51.546z">
			</path>
			<path fill="none" d="M70.832,82.722c0.061,0.226,0.554-0.293,0.815-0.544c0.319-0.304,0.608-0.698,0.909-0.997   c0.556-0.556,1.477-1.813,2.173-0.905c-1.223,1.586-2.76,2.857-4.348,4.077c1.881-0.443,3.606-1.045,4.531-2.446   c0.039-1.459-0.13-2.709-0.453-3.807C73.153,79.544,72.278,81.42,70.832,82.722z">
			</path>
			<path fill="none" d="M13.194,82.994c-0.186-0.145-0.21-0.455-0.181-0.816c1.111-1.547,2.695-3.106,3.082-5.074   c-0.731,1.533-2.334,2.199-2.81,3.988c-0.37,0.139-0.732,0.683-1.178,0.453c0.091,0.965,0.339,1.776,0.633,2.537   c0.509-0.219,0.98-0.954,1.088-1.27C13.741,82.999,13.482,83.009,13.194,82.994z">
			</path>
			<path fill="none" d="M73.098,75.473c-0.391-3.024-1.061-5.768-1.813-8.429c0.033-0.136,0.583-0.453,0.181-0.453   c-0.377-0.3-1.065-0.325-1.631-0.453c-0.582-0.13-1.149-0.455-1.449-0.272c0.135,2.917,1.167,6.276,1.631,9.334   c0.098,0.659,0.087,1.59,0.181,2.358c0.074,0.606,0.624,1.688-0.271,1.903c-0.715-0.751-0.604-2.011-0.725-3.083   c-0.37-3.267-1.586-7.006-1.813-9.876c-0.081-1.034,0.296-1.235,0.363-1.815c-1.419,1.091-2.368,2.646-3.625,3.898   c-0.076,0.204,0.72-0.301,0.905-0.453c0.673-0.546,1.23-1.776,2.086-1.63c0.336,0.894-0.587,1.276-0.906,1.812   c0.439,0.112,0.563,0.486,0.724,0.814c1.602,3.276,1.453,8.437,2.176,12.688c1.713-1.337,3.045-3.842,4.531-5.71   C73.543,75.811,73.115,75.846,73.098,75.473z M72.01,76.378c-0.639-0.313-0.742-1.294-0.907-1.993   c-0.177-0.759-0.312-1.641-0.452-2.447c-0.294-1.682-0.727-3.41-0.907-4.983c0.033-0.121,0.16-0.145,0.183-0.273   c0.822-0.199,0.897,1.348,1.086,2.175c0.42,1.836,0.592,3.355,0.997,5.164C72.194,74.836,72.797,75.911,72.01,76.378z">
			</path>
			<path fill="none" d="M67.842,78.191c-0.357-3.511-0.92-7.276-2.267-9.424c-0.648,0.26-0.461,0.891-0.361,1.448   c0.656,3.692,1.462,7.347,1.813,11.33c0.046,0.507,0.461,1.543-0.363,1.721c-0.636-0.202-0.399-0.981-0.452-1.451   c-0.459-4.064-1.257-8.139-1.902-11.873c-4.173,3.092-8.816,5.927-12.778,9.153c-0.635,0.515-1.229,1.207-1.906,1.724   c-0.61,0.467-1.486,1.246-2.354,0.996c-0.032-0.83,0.851-1.179,1.359-1.54c0.573-0.412,1.138-0.821,1.632-1.27   c3.132-2.855,6.821-4.983,10.239-7.431c0.17-0.132,0.012-0.593,0.182-0.724c2.576-2.227,4.439-5.167,6.977-7.43   c0.073-0.464-0.126-0.66-0.089-1.088c-3.376,3.28-6.715,6.946-10.241,9.969c-0.403,0.347-0.861,1.111-1.541,0.816   c-0.009-1.417,1.479-1.769,2.267-2.537c3.011-2.937,6.061-6.108,8.971-9.154c-0.01-0.111-0.027-0.214-0.183-0.183   c-1.416,0.836-2.858,2.018-4.44,3.084c-1.445,0.972-3.037,2.013-4.168,3.081c-1.196,1.128-2.389,2.746-3.897,3.806   c-1.493,1.049-3.065,2.177-4.349,3.351c-0.648,0.594-1.184,1.307-1.904,1.904c-1.459,1.212-2.701,2.18-4.169,3.535   c-0.68,0.626-1.834,1.468-1.903,1.992c-0.118,0.883,0.909,2.78,1.36,3.625c0.688,1.297,1.153,2.262,1.902,3.083   c0.821,0.895,2.457,1.643,3.989,2.536c3.251,1.898,8.446,2.945,11.69,0.544c0.206-0.219,0.199-0.647,0.362-0.906   c2.578-2.86,5.255-5.623,7.612-8.701C67.621,81.926,67.991,79.664,67.842,78.191z M54.971,82.267c-0.149,0-0.3,0-0.451,0   c-0.294-0.29-0.376-1.538,0.451-1.266C55.239,81.193,55.239,82.079,54.971,82.267z M56.603,84.34   c-0.699,0.063-0.599-3.08-0.634-3.817c-0.091-1.982-0.054-2.575,0-4.01c0.033-0.12,0.159-0.318,0.181-0.318   c0.152,0,0.302,0,0.452,0c0.415,1.114,0.163,2.566,0.363,4.572C57.076,81.856,57.195,84.291,56.603,84.34z M58.779,87.797   c-0.787,0.072-0.497-2.645-0.544-3.715c-0.122-2.757-0.524-6.108-0.636-8.609c0.052-0.133,0.143-0.222,0.272-0.273   c1.008-0.109,0.776,2.973,0.908,4.168c0.186,1.697,0.312,3.413,0.362,4.532C59.179,84.747,59.393,87.742,58.779,87.797z    M61.134,87.76c-0.796-0.439-0.495-1.543-0.543-2.393c-0.197-3.394-0.804-6.688-0.997-10.226c0.05-0.133,0.14-0.059,0.272-0.059   c0.03,0,0.061,0,0.09,0c0.803,0,0.493,0.82,0.544,1.329c0.264,2.647,0.865,5.965,0.996,8.982   C61.537,86.271,61.766,87.235,61.134,87.76z M63.31,87.074c-0.694,0.035-0.508-1.273-0.545-1.995   c-0.19-3.845-1.047-8.732-1.54-12.505c0.049-0.13,0.141-0.223,0.271-0.272c0.896-0.076,0.918,2.311,1.089,3.35   c0.498,3.041,0.956,6.256,1.086,9.789C63.696,86.069,63.889,87.041,63.31,87.074z M64.941,84.56   c-0.689,0.076-0.475-1.033-0.544-1.792c-0.127-1.398-0.285-3.214-0.634-4.937c-0.361-1.774-0.768-3.256-0.724-4.891   c0.049-0.13,0.14-0.085,0.271-0.085c0.031,0,0.061,0,0.09,0c0.863,1.114,0.642,1.714,0.816,2.803   c0.319,1.999,0.703,3.902,0.997,6.171C65.332,82.743,65.567,84.488,64.941,84.56z">
			</path>
			<path fill="none" d="M40.019,89.155c0.353-0.039,0.614-0.169,0.545-0.633C40.097,88.447,40.01,88.755,40.019,89.155z">
			</path>
			<path fill="none" d="M86.329,50.37c-2.176,1.074-3.756,3.049-5.71,4.712c-1.975,1.681-4.2,3.028-5.438,4.803   c0.857,0.413,1.694,0.845,2.538,1.269c2.504-2.081,6.159-4.406,8.792-6.616c1.029-0.865,2.472-2.665,2.082-4.351   C87.71,49.892,87.015,50.03,86.329,50.37z M85.423,53.904c-1.877-0.447,0.732-3.555,1.903-1.904   C87.145,52.895,86.475,54.154,85.423,53.904z">
			</path>
			<path fill="none" d="M71.738,60.7c0.199,0.3,0.235,0.746,0.272,1.179c0.119,1.353-0.093,3.188,0.546,3.986   c0.066-0.569-0.059-1.112-0.094-1.632c-0.072-1.114-0.354-2.323,0.453-2.808c0.967,0.886,0.05,3.816,0.816,4.985   c0.268-1.348-0.66-2.963,0.183-3.715c1.157,0.733,0.449,2.8,0.814,4.259c0.781,0.571,3.2,1.728,2.175,2.808   c-0.988-0.401-1.327-1.452-2.355-1.812c-0.096,0.732,1.236,3.656,0.363,3.807c-0.749,0.126-0.773-1.261-0.908-1.903   c-0.203-0.986-0.416-1.58-0.452-2.448c-0.606-0.059-0.854-0.475-1.36-0.635c0.711,2.796,1.462,5.546,1.813,8.701   c1.003-0.706,1.64-1.841,2.539-2.9c0.77-0.91,2.042-1.886,2.627-2.81c0.788-1.245,0.677-2.94,0.997-4.622   c-2.104-2.157-5.042-3.476-8.248-4.531C71.849,60.631,71.742,60.612,71.738,60.7z M75.635,64.791c0.344,0.65,0.331,1.093,0,2.176   c-0.151,0-0.303,0-0.455,0C74.932,65.884,74.535,64.83,75.635,64.791z">
			</path>
			<path d="M63.671,15.48c-0.831-0.713-2.39,0.909-1.902,1.812C62.744,17.028,63.247,16.293,63.671,15.48z">
			</path>
			<path d="M62.676,18.832c-0.357,0.129-0.794,0.174-0.726,0.725c1.21,0.706,2.28-0.946,2.628-1.994   C63.646,17.024,63.115,18.291,62.676,18.832z">
			</path>
			<path d="M61.95,21.459c0.968-0.273,1.769-0.708,2.085-1.631C63.318,19.231,61.419,20.515,61.95,21.459z">
			</path>
			<path d="M63.401,23.362c0.5-0.389,1.427-0.771,1.358-1.63c-0.151-0.121-0.302-0.24-0.633-0.182   c-0.482,0.515-1.185,1.075-1.814,1.54c-0.327,0.245-1.132,0.476-0.724,1.18C62.3,24.431,62.886,23.764,63.401,23.362z">
			</path>
			<path d="M49.264,31.519c0.705-1.216,0.526-2.624,0.36-3.897c-0.105-0.104-0.317-0.103-0.543-0.089   c-0.435,0.868-0.141,1.678-0.273,2.627C48.708,30.9,48.429,31.529,49.264,31.519z">
			</path>
			<path d="M47.178,31.654c0.121,0,0.241,0,0.362,0c0.714-1.114,0.483-2.227,0.182-3.341c-0.15,0-0.302,0-0.452,0   c-0.456,1.114-0.159,1.518-0.183,2.35C47.076,31.069,46.774,31.654,47.178,31.654z">
			</path>
			<path d="M43.463,47.379c0.448-0.441,0.871-0.924,1.269-1.358c2.475-2.704,5.647-4.991,6.799-8.883   c-0.162-0.081-0.232-0.252-0.546-0.181c-0.905,1.034-1.346,2.3-2.176,3.351c-1.754,2.238-3.984,4.522-5.979,6.436   c-0.374,0.357-1.128,0.833-0.817,1.539C42.719,48.545,43.109,47.726,43.463,47.379z">
			</path>
			<path d="M47.178,38.135c-0.959-0.68-1.939,0.791-2.447,1.45c0.124,0.089,0.183,0.242,0.273,0.363   C46.102,39.716,46.744,39.03,47.178,38.135z">
			</path>
			<path d="M45.094,42.666c0.68,0.259,1.256-0.416,1.724-0.816c0.973-0.835,2.176-1.651,2.354-3.082   c-0.15-0.121-0.301-0.24-0.634-0.179c-0.021,0.128-0.149,0.151-0.182,0.272c-0.144,0.126-0.232,0.312-0.271,0.544   c-0.548,0.456-1.05,1.037-1.632,1.539C45.922,41.407,44.912,41.801,45.094,42.666z">
			</path>
			<path d="M49.808,43.754c0.727-0.796,1.564-1.721,1.722-2.81c-0.162-0.082-0.232-0.253-0.546-0.181   c-1.888,2.426-3.964,4.798-6.253,6.705c-0.73,0.61-1.714,1.113-2.085,2.086c1.044,0.556,1.831-0.769,2.538-1.359   C46.896,46.765,48.356,45.337,49.808,43.754z">
			</path>
			<path d="M48.266,47.379c-0.588,0.575-1.192,1.054-1.813,1.54c-0.577,0.455-1.452,0.951-1.449,1.813   c0.883,0.319,1.563-0.698,2.174-1.178c1.481-1.162,2.501-2.305,3.624-3.717c0.559-0.699,1.276-1.321,1.451-2.174   c-0.147-0.157-0.378-0.225-0.723-0.182C50.476,44.803,49.519,46.153,48.266,47.379z">
			</path>
			<path d="M48.449,50.732c-0.467,0.425-1.469,0.667-1.451,1.54c0.838,0.446,1.468-0.439,1.994-0.906   c0.568-0.505,1.196-1.058,1.721-1.541c1.123-1.03,2.48-2.186,2.992-3.624c-0.153-0.121-0.305-0.24-0.636-0.179   C51.563,47.652,50.023,49.295,48.449,50.732z">
			</path>
			<path d="M51.256,50.823c-0.77,0.633-1.948,1.161-2.264,2.265c0.631,0.435,1.273-0.299,1.721-0.634c0.506-0.382,1.01-0.9,1.45-1.269   c0.943-0.788,2.433-1.453,2.629-2.81c-0.152-0.12-0.306-0.24-0.635-0.181c-0.148,0.214-0.326,0.398-0.452,0.633   C52.842,49.439,52.091,50.135,51.256,50.823z">
			</path>
			<path d="M52.253,52.997c-0.487,0.407-1.305,0.562-1.086,1.269c0.902,0.37,1.69-0.644,2.265-1.178   c0.649-0.604,1.617-1.226,1.721-2.175C54.079,50.399,53.159,52.243,52.253,52.997z">
			</path>
			<path d="M66.211,56.08c0.822-0.369,1.639-0.885,2.354-1.27c1.512-0.808,3.561-1.621,3.991-3.354   c-0.163-0.079-0.233-0.252-0.546-0.181c-1.43,1.523-4.428,3.262-6.524,4.167c-0.622,0.271-1.732,0.195-1.903,1.09   C64.398,57.09,65.438,56.423,66.211,56.08z">
			</path>
			<path d="M85.423,53.904c1.052,0.25,1.721-1.009,1.903-1.904C86.155,50.349,83.546,53.457,85.423,53.904z">
			</path>
			<path d="M52.889,55.987c0.533,0.414,1.046-0.267,1.54-0.634c0.757-0.563,1.762-1.017,1.812-2.085   c-0.15-0.12-0.302-0.239-0.632-0.181C54.969,54.325,53.209,54.437,52.889,55.987z">
			</path>
			<path d="M71.194,54.538c-0.001,0.121-0.158,0.083-0.182,0.182c-1.133,0.851-2.637,1.447-4.078,2.084   c-1.066,0.471-2.587,0.752-2.9,1.994c0.675,0.414,1.382-0.309,1.994-0.635c0.679-0.36,1.458-0.603,2.175-0.906   c1.348-0.569,3.232-1.112,3.624-2.537C71.677,54.599,71.524,54.478,71.194,54.538z">
			</path>
			<path d="M47.722,67.951c-0.406,0.334-1.267,0.642-1.086,1.359c0.556,0.381,1.239-0.23,1.63-0.544   c0.469-0.378,0.939-0.817,1.358-1.179c2.303-1.982,4.862-3.875,7.161-5.709c0.405-0.323,1.292-0.724,0.997-1.451   c-0.738-0.359-1.107,0.453-1.542,0.815C53.463,63.564,50.418,65.736,47.722,67.951z">
			</path>
			<path d="M46.453,71.031c-0.48,0.382-1.364,0.672-1.449,1.451c0.793,0.53,1.419-0.345,1.902-0.723   c2.903-2.286,5.838-4.415,8.702-6.617c1.133-0.873,2.831-1.433,3.171-2.99c-0.162-0.081-0.23-0.253-0.544-0.182   c-1.041,1.058-2.324,1.863-3.535,2.81C51.95,66.931,49.084,68.942,46.453,71.031z">
			</path>
			<path d="M75.635,66.967c0.331-1.083,0.344-1.526,0-2.176c-1.1,0.039-0.703,1.093-0.455,2.176   C75.332,66.967,75.484,66.967,75.635,66.967z">
			</path>
			<path d="M71.013,68.857c-0.189-0.826-0.264-2.374-1.086-2.175c-0.023,0.128-0.15,0.152-0.183,0.273   c0.179,1.572,0.613,3.3,0.907,4.983c0.14,0.806,0.275,1.688,0.452,2.447c0.165,0.699,0.268,1.68,0.907,1.993   c0.787-0.467,0.184-1.542,0-2.356C71.604,72.212,71.432,70.693,71.013,68.857z">
			</path>
			<path d="M62.585,75.651c-0.171-1.04-0.193-3.426-1.089-3.35c-0.129,0.049-0.222,0.141-0.271,0.272   c0.492,3.773,1.349,8.66,1.54,12.505c0.037,0.722-0.149,2.03,0.545,1.995c0.579-0.033,0.386-1.005,0.361-1.633   C63.541,81.907,63.083,78.692,62.585,75.651z">
			</path>
			<path d="M64.216,75.658c-0.174-1.09,0.048-1.69-0.816-2.803c-0.029,0-0.06,0-0.09,0c-0.13,0-0.222-0.046-0.271,0.085   c-0.044,1.635,0.363,3.118,0.724,4.891c0.349,1.722,0.507,3.538,0.634,4.937c0.069,0.759-0.146,1.868,0.544,1.792   c0.625-0.072,0.39-1.817,0.272-2.73C64.919,79.56,64.535,77.657,64.216,75.658z">
			</path>
			<path d="M60.5,76.41c-0.051-0.509,0.259-1.329-0.544-1.329c-0.029,0-0.06,0-0.09,0c-0.132,0-0.222-0.074-0.272,0.059   c0.194,3.539,0.8,6.832,0.997,10.226c0.048,0.85-0.253,1.954,0.543,2.393c0.632-0.525,0.402-1.489,0.362-2.367   C61.365,82.375,60.765,79.057,60.5,76.41z">
			</path>
			<path d="M58.779,79.368c-0.132-1.195,0.1-4.277-0.908-4.168c-0.129,0.051-0.22,0.14-0.272,0.273   c0.112,2.501,0.514,5.852,0.636,8.609c0.047,1.07-0.244,3.786,0.544,3.715c0.614-0.054,0.4-3.05,0.362-3.896   C59.091,82.782,58.965,81.066,58.779,79.368z">
			</path>
			<path d="M56.603,76.195c-0.15,0-0.3,0-0.452,0c-0.023,0-0.149,0.198-0.181,0.318c-0.054,1.435-0.091,2.028,0,4.01   c0.035,0.737-0.065,3.88,0.634,3.817c0.591-0.049,0.473-2.484,0.363-3.573C56.766,78.761,57.018,77.309,56.603,76.195z">
			</path>
			<path d="M35.397,79.368c-0.798,1.027-0.943,3.069-1.268,4.805c-0.308,1.643-0.953,3.114-0.816,4.349   c0.906,0.085,1.003-1.083,1.178-1.72c0.635-2.31,1.045-5.183,1.359-7.341C35.745,79.383,35.608,79.341,35.397,79.368z">
			</path>
			<path d="M32.679,80.649c-0.129,0-0.22-0.046-0.273,0.084c-0.351,1.893-0.721,4.456-1.268,6.523c-0.104,0.397-0.775,1.722,0,1.856   c0.58,0.099,0.747-1.004,0.907-1.65c0.555-2.232,1.237-5.7,0.997-6.814C32.92,80.649,32.8,80.649,32.679,80.649z">
			</path>
			<path d="M21.896,80.73c-0.436,0.974-0.821,2.281-1.27,3.353c-0.546,1.298-1.669,2.45-1.449,3.807   c0.931-0.07,1.217-1.218,1.539-1.905c0.83-1.769,1.764-3.576,1.904-5.437c-0.107-0.104-0.321-0.102-0.543-0.089   C22.054,80.585,21.926,80.61,21.896,80.73z">
			</path>
			<path d="M54.52,82.267c0.151,0,0.302,0,0.451,0c0.269-0.188,0.269-1.074,0-1.266C54.143,80.73,54.226,81.977,54.52,82.267z">
			</path>
			<path d="M36.758,81.724c-0.023,0.13-0.149,0.156-0.182,0.273c-0.382,1.597-0.872,3.543-1.269,5.077   c-0.132,0.508-0.501,1.376,0.182,1.631c0.667-0.1,0.588-0.948,0.725-1.452c0.471-1.749,1.108-3.689,1.086-5.437   C37.194,81.713,36.98,81.715,36.758,81.724z">
			</path>
			<path d="M38.569,82.539c-0.338,1.46-0.98,3.207-1.179,4.896c-0.06,0.522-0.388,1.377,0.272,1.631   c0.691-0.079,0.569-0.98,0.636-1.448c0.258-1.846,1.057-3.589,0.995-5.257c-0.107-0.104-0.32-0.102-0.543-0.094   C38.73,82.398,38.602,82.423,38.569,82.539z">
			</path>
			<path d="M86.057,48.556c-4.336,1.705-7.854,7.142-11.42,8.883c-0.097-3.934-0.1-6.813-0.362-10.332   c-0.353-4.778-0.863-10.129-2.174-14.047c-0.476-1.421-0.894-2.955-1.451-3.988c-1.231-2.286-3.606-4.523-3.988-7.431   c-0.238-1.809-0.021-3.921-0.18-5.982c-0.055-0.693-0.334-1.696-0.182-2.356c0.132-0.568,0.782-1.1,0.905-1.992   c0.121-0.866-0.007-1.649-0.089-2.628c0.363-0.47,0.687-1.232,0.453-2.085c-0.539-1.952-6.573-1.653-9.062-1.448   c-1.586,0.127-4.026,0.663-4.624,1.63c-0.201,0.325-0.127,0.774-0.272,1.177c-0.156,0.444-0.375,0.466-0.452,0.998   c-0.116,0.795-0.016,1.466,0.091,1.903c0.248,1.015,1.106,1.437,1.358,2.446c0.202,0.807,0.279,2.148,0.361,3.265   c0.126,1.665-0.026,2.913-0.543,3.896c-0.225,0.432-1.153,1.8-1.45,1.903c-0.983,0.343-2.72-0.094-3.897,0   c-1.763,0.14-4.092,0.335-6.252,0.181c-3.705-0.264-8.236-0.179-12.598-0.181c-4.04,0-8.089-0.251-11.236,0   c-1.277,0.101-3.24,0.324-4.17,0.816c-1.277,0.676-1.644,2.844-2.264,4.168c-0.251,0.536-0.647,1.627-0.636,2.085   c0.014,0.517,0.367,0.788,0.455,1.358c0.154,1.028-0.084,2.076,0,3.083c0.222,2.664,1.427,4.772,1.63,7.34   c0.113,1.403,0.289,2.921,0.183,4.351c-0.212,2.771-0.743,5.662-1.179,8.518c-0.411,2.692-1.301,5.282-1.813,7.974   c-0.815,4.288-1.434,8.692-1.721,12.777c-0.052,0.739-0.061,1.54,0,2.268c0.358,4.291,1.483,7.294,2.9,11.418   c1.346,0.958,3.434,0.82,5.708,1.177c1.269,0.199,2.527,0.566,3.99,0.726c1.328,0.145,2.724,0.444,4.167,0.544   c2.165,0.152,4.628,0,6.978,0c2.426,0,4.964,0.246,6.979,0c0.589-0.073,1.265-0.348,1.992-0.452   c0.689-0.101,1.422-0.127,1.904-0.546c2.802,2.292,6.816,4.633,11.328,4.985c0.661,0.053,1.567,0.065,2.266,0   c1.429-0.129,4.043-1.13,4.621-1.813c0.232-0.272,0.298-0.907,0.453-1.175c0.423-0.729,1.616-1.856,2.448-2.72   c0.816-0.847,1.724-2.347,2.538-2.628c0.496-0.172,1.185-0.134,1.721-0.272c2.86-0.731,6.376-1.354,7.069-3.808   c0.633-2.247-0.744-4.575-0.272-6.613c0.171-0.745,1.511-2.156,2.084-2.81c1.669-1.907,2.827-2.58,3.444-5.438   c0.168-0.778,0.376-2.23,0.271-2.808c-0.216-1.21-1.632-1.958-2.538-2.72c3.528-3.453,8.666-5.293,10.877-10.059   C91.27,48.681,88.377,47.644,86.057,48.556z M65.757,7.233c-1.319,1.044-3.772,1.535-6.072,1.721   c-1.057,0.085-2.175,0.04-3.172-0.182c-0.158-0.446-0.399-0.809-0.633-1.178C58.208,6.668,63.007,6.565,65.757,7.233z    M54.971,10.132c3.097,1.205,7.729,0.263,10.514-0.544c0.065,0.82-0.083,1.427-0.272,1.993c-2.219-0.006-6.483,0.931-8.79,0.455   C55.699,11.886,55.107,10.979,54.971,10.132z M56.06,21.459c0.846-1.962,0.742-5.272,0.363-7.703   c2.884,0.136,5.815-0.161,8.155-0.271c0.261,2.744,0.039,6.036,0.363,8.609c0.071,0.558,0.598,1.297,0.544,1.811   c-0.125,1.156-2.581,2.086-3.173,2.901c0.018,0.075,0.091,0.09,0.091,0.183c0.742,0.753,1.501-0.212,1.994-0.636   c0.609-0.521,1.19-1.053,1.631-1.267c1.044,0.959-0.975,2.359-1.994,2.989c-0.308,0.193-1.465,0.449-1.358,0.997   c0.199,1.032,1.943-0.4,2.265-0.634c0.824-0.599,1.37-1.003,1.993-1.542c0.386,0.249,0.537,0.734,0.817,1.09   c-0.973,1.199-2.318,2.104-3.808,2.899c-0.402,0.215-1.146,0.439-1.087,1.089c0.451,0.625,1.134-0.053,1.542-0.273   c1.397-0.755,2.818-1.876,3.988-2.81c0.168,0.496,0.548,0.78,0.725,1.269c-0.971,0.935-2.857,2.397-3.987,2.9   c-0.397,0.176-1.369,0.112-1.269,0.724c0.197,1.239,2.76-0.671,2.988-0.816c1.104-0.696,1.795-1.136,2.721-1.721   c0.094,0.508,0.345,0.863,0.452,1.359c-1.401,1.028-2.906,2.248-4.803,3.082c-0.456,0.199-1.737,0.37-1.721,0.905   c0.023,0.908,1.421,0.163,1.811,0c1.858-0.764,3.621-1.933,4.985-3.081c0.167,0.606,0.759,1.357,0.635,1.904   c-0.133,0.583-2.685,1.742-3.263,2.084c-0.577,0.344-1.128,0.669-1.63,0.998c-0.549,0.357-1.425,0.528-1.358,1.268   c0.543,0.651,1.2-0.171,1.63-0.452c1.485-0.974,3.246-1.946,4.893-2.721c0.671,1.499-0.475,2.106-1.451,2.721   c-1.279,0.806-2.386,1.578-3.804,2.176c-0.714,0.298-1.604,0.308-1.997,0.905c0.382,0.999,1.5,0.193,1.997,0   c2.05-0.803,3.829-2.156,5.616-3.081c0.713,1.245-0.696,1.802-1.63,2.354c-1.334,0.79-2.536,1.309-4.079,2.086   c-0.542,0.271-1.89,0.828-1.813,1.269c0.138,0.785,1.568-0.012,2.085-0.272c1.954-0.983,3.985-2.155,5.799-3.172   c0.527,1.402-0.572,1.957-1.539,2.628c-1.55,1.076-3.996,2.877-5.621,3.445c-0.453,0.158-1.26-0.004-1.358,0.543   c0.565,1.017,1.832,0.22,2.447-0.091c2.21-1.116,4.263-2.871,6.343-3.988c-0.05,0.625,0.232,0.917,0.182,1.541   c-1.779,1.357-4.048,2.203-6.071,3.444c-0.597,0.365-1.619,0.613-1.722,1.449c0.677,0.592,1.468-0.215,1.994-0.543   c1.785-1.112,4.027-2.102,5.89-3.171c-0.005,0.458,0.158,0.749,0.094,1.267c-1.844,1.662-4.161,3.412-6.799,4.259   c-0.416,0.133-1.059-0.046-1.27,0.545c0.459,1.021,1.631,0.222,2.176,0c2.11-0.86,4.199-2.167,5.893-3.354   c0.089,2.084,0.358,3.989,0.36,6.161c0.01,0.409-0.273-0.038-0.544,0.092c-1.658,1.663-4.017,2.627-6.343,3.623   c-0.989,0.944-2.2,1.668-3.352,2.448c-0.763-11.775-6.333-18.742-9.244-28.367c4.996,1.336,3.928-5.774,2.808-8.337   c-0.36-0.83-1.277-1.774-1.269-2.265C54.983,22.274,55.886,21.829,56.06,21.459z M70.832,60.791   c0.418,1.247,0.388,3.416,0.453,4.713c-0.361-0.034-0.404-0.362-0.453-0.545C70.455,63.58,70.989,62.155,70.832,60.791z    M70.017,58.617c0.972-0.63,2.127-1.074,2.81-1.993C72.808,57.844,71.787,58.845,70.017,58.617z M69.473,61.879   c-0.05-0.132-0.14-0.222-0.272-0.273c-0.695-0.121-0.526,0.623-0.636,1.09c-0.137-0.317-0.162-0.743-0.179-1.18   c0.4-0.204,1.145-0.545,1.541-0.452c-0.056,1.522-0.158,2.502,0.09,4.078c-0.823,0.112-0.45-1.078-0.452-1.721   C69.561,62.882,69.483,62.56,69.473,61.879z M53.341,24.089c1.482,1.418,2.441,4.239,1.63,6.887   c-0.475-0.543,0.332-1.47-0.543-2.049c-1.119,0.687-0.098,2.727-0.634,3.841c-0.181,0-0.362,0-0.543,0   c-0.065-2.227,0.799-3.68,0.18-4.748c-1.328,0.485-0.572,2.811-1.179,4.015c-0.316,0.047-0.684-0.081-0.906,0.06   c-0.29-0.947,0.085-1.927,0.183-3.05c0.04-0.506,0.177-1.435-0.363-1.481c-0.762-0.066-0.834,3.601-0.816,4.515   c-1.313,0.408-3.206,0.229-4.893,0.264c0.003-0.358,0.199-0.528,0.271-0.819c-0.075-0.995,0.105-1.513,0.091-2.361   c-0.008-0.307,0.062-1.951-0.726-1.813c-0.66,0.117-0.13,2.204-0.179,3.209c-0.035,0.655-0.271,2.209-0.272,2.209   c-0.424,0-0.848,0-1.269,0c0.116-1.114,0.612-2.956,0.451-4.024c-0.037-0.252-0.025-0.883-0.451-0.921   c-0.455-0.085-0.49,0.621-0.544,0.885c-0.233,1.161,0.116,2.946-0.454,4.059c-0.393,0-0.786,0-1.179,0   c-0.195,0,0.157-0.613,0.272-0.939c0.182-0.516,0.386-1.567,0.453-2.193c0.058-0.543,0.203-1.471-0.362-1.685   c-0.997,0.566-0.438,2.784-1.087,3.689c-0.1,0.4,0.152,0.436,0.179,0.711c-0.361-0.013-0.698-0.05-1.034-0.089   c0.172-0.389,0.243-0.943,0.31-1.347c0.187-1.111,0.372-2.599,0-2.599c-0.15,0-0.301,0-0.453,0   c-0.228,0.97-0.616,2.644-0.586,3.871c-0.437-0.041-0.888-0.067-1.407-0.024c0.003-0.357,0.199-0.527,0.271-0.82   c-0.003-0.786,0.087-1.47,0.091-2.085c0.002-0.607,0.158-1.443-0.455-1.906c-0.717,0.204-0.541,1.168-0.544,1.722   c-0.004,0.981-0.015,1.979-0.089,3.081c-0.638,0.034-0.993-0.214-1.632-0.179c0.573-0.844,0.655-2.757,0.635-3.898   c-0.009-0.451,0.137-1.231-0.363-1.269c-0.397-0.031-0.465,0.34-0.544,0.726c-0.172,0.847,0.237,2.6-0.362,3.533   c0.054,0.188-0.112,0.596,0.09,0.635c-0.424,0.21-1.239,0.03-1.81,0.09c0.366-0.888,1.191-2.943,0.271-3.716   c-0.974,0.463-0.294,2.235-0.997,3.083c-0.018,0.259,0.023,0.458,0.183,0.543c-0.217,0.208-0.815,0.033-1.18,0.09   c0.202-1.087,0.869-2.65,0-3.352c-0.707,0.065-0.463,1.554-0.544,2.119c-0.096,0.681-0.309,1.096-0.361,2.21   c-0.514,0-1.028,0-1.542,0c0.487-1.114,0.919-3.547,0.09-4.382c-1.127,0.513,0.022,2.774-0.997,3.594   c-0.072,0.314,0.136,0.788,0.092,0.788c-0.364,0-0.726,0-1.088,0c0.424-1.114,0.372-2.314,0.362-3.297   c-0.002-0.359,0.174-1.377-0.362-1.376c-1.02,0.001-0.124,2.736-0.817,3.523c-0.051,0.27,0.343,0.507,0.183,0.586   c-0.524-0.036-0.995-0.023-1.451,0.004c0.838-0.173,0.801-2.952,0.454-3.895c-0.151,0-0.301,0-0.453,0   c-0.421,1.114-0.161,2.335-0.543,3.715c0.151,0.119,0.284,0.172,0.404,0.187c-0.565,0.038-1.106,0.101-1.674,0.145   c-0.193-1.446,0.91-3.236-0.089-4.09c-0.738,0.092-0.484,1.062-0.544,1.624c-0.099,0.905-0.352,1.828-0.455,2.536   c-0.562,0.099-1.145,0.179-1.72,0.271c1-2.831,0.254-6.82-1.269-8.521C30.261,23.79,42.07,24.463,53.341,24.089z M14.645,29.617   c0.01-1.902-0.129-4.747,1.359-4.896c2.397-0.24,3.567,6.133,1.904,8.068c-1.595-0.744,0.954-4.39-0.908-4.623   c-0.63-0.078-0.782,0.388-1.268,0.635c-0.627,1.969-1.391,3.805-1.179,6.615C14.086,34.058,13.649,30.743,14.645,29.617z    M16.276,46.472c0.214,0.24,0.139,0.767,0.272,1.087c-0.792,0.507-0.581,2.019-1.086,2.81   C15.211,48.909,15.838,47.546,16.276,46.472z M14.915,53.722c-0.09-0.126,0.04-0.803,0.273-0.906   C15.38,53.042,14.995,53.466,14.915,53.722z M16.456,55.353c0.223-0.424,0.808-1.207,0.183-1.721   c-0.738,0.186-0.945,1.115-1.27,1.721c-0.349,0.657-0.648,1.361-1.087,1.903c0.391-1.995,1.996-3.561,2.538-5.71   c0.173,1.43,0.343,2.86,0.272,4.533c-1.488,1.956-2.612,4.274-3.988,6.342C13.357,59.514,15.224,57.712,16.456,55.353z M17,57.619   c0.427,0.693,0.354,1.882,0.455,2.9c0.083,0.356-0.48,0.066-0.544,0.272c-1.438,2.339-3.139,4.414-4.624,6.707   C12.366,63.073,15.698,61.119,17,57.619z M11.836,69.855c1.793-2.832,3.817-5.427,5.619-8.249c0.4,1.055,0.432,2.735,0.272,4.08   c-0.217,0.217-0.24-0.221-0.635-0.092c-1.305,1.386-2.335,3.351-3.535,5.077c-0.315,0.452-1.246,1.122-0.543,1.719   c1.213-0.563,1.638-1.953,2.355-2.989c0.717-1.032,1.565-2.003,2.175-3.082c0.212,0.817,0.032,2.024,0.09,2.992   c-0.192,0.108-0.505,0.097-0.634,0.271c-0.747,1.424-1.854,2.383-3.261,3.895c-0.763,0.821-2.296,2.143-2.175,2.993   c0.122,0.881,1.419,0.389,1.269-0.634c1.475-1.729,3.198-3.206,4.53-5.076c0.208,0.452-0.213,1.053-0.181,1.631   c-1.453,1.513-3.027,3.285-4.531,4.985c-0.386,0.437-1.354,1.207-0.633,1.903c0.649-0.109,0.904-0.847,1.268-1.269   c1.119-1.286,2.358-2.633,3.625-3.895c-0.172,0.493-0.145,1.185-0.363,1.631c-0.011,0.424-0.206-0.187-0.544,0   c-1.306,1.713-2.564,3.479-4.168,4.892C10.989,77.365,11.201,73.243,11.836,69.855z M12.741,84.082   c-0.294-0.761-0.542-1.572-0.633-2.537c0.446,0.229,0.808-0.314,1.178-0.453c0.476-1.789,2.079-2.454,2.81-3.988   c-0.387,1.968-1.971,3.527-3.082,5.074c-0.029,0.361-0.005,0.671,0.181,0.816c0.288,0.015,0.547,0.006,0.635-0.182   C13.72,83.129,13.25,83.864,12.741,84.082z M40.019,89.155c-0.009-0.4,0.078-0.708,0.545-0.633   C40.633,88.987,40.372,89.116,40.019,89.155z M39.022,89.557c-3.232,0-6.464,0-9.694,0c0.842-3.341,1.91-6.411,2.263-9.489   c0.096-0.815,0.273-1.89-0.361-2.433c-0.806,0.316-0.475,1.23-0.543,1.953c-0.271,2.905-1.28,6.356-1.995,8.923   c-0.117,0.266-0.117,1.045,0,1.045c-0.634,0-1.269,0-1.903,0c0.957-2.227,1.731-4.669,2.356-7.314   c0.177-0.75,0.676-1.981-0.089-2.615c-0.803,0.067-0.462,0.928-0.546,1.411c-0.405,2.35-1.347,4.905-2.176,6.869   c-0.602,0.15-0.408,1.57-1.359,1.077c-0.079-0.588,0.308-1.328,0.544-2.089c0.436-1.396,0.856-2.989,1.089-4.715   c0.098-0.724,0.473-1.825-0.273-2.266c-0.775,0.16-0.475,1.233-0.543,1.808c-0.281,2.44-1.227,4.98-1.812,7.16   c-0.625-0.039-1.101-0.227-1.812-0.178c0.959-1.934,1.51-4.382,2.264-6.616c0.22-0.651,0.761-1.559,0.182-2.175   c-0.837,0.174-0.862,1.315-1.086,1.993c-0.716,2.161-1.25,4.819-2.448,6.615c-1.447-0.063-2.38-0.641-3.897-0.633   c0.617-0.994,0.965-2.446,1.452-3.807c0.23-0.647,0.845-1.46,0.179-1.993c-0.873,0.34-1.074,1.819-1.358,2.717   c-0.331,1.04-0.829,1.955-1.087,2.9c-0.608,0.002-1.022-0.187-1.542-0.272c1.388-2.821,1.948-6.094,2.992-9.335   c0.387-1.199,0.587-2.486,0.817-3.808c0.221-1.283,0.606-2.585,0.723-3.804c0.16-1.651,0.049-3.542,0.183-4.985   c0.284-3.097-0.495-5.934-0.726-8.791c-0.124-1.542-0.035-3.117-0.179-4.35c-0.36-3.061-0.27-6.146-0.725-8.971   c-0.283-1.733-1.215-3.305-1.452-5.075c-0.165-1.246-0.193-2.663-0.181-4.259c0.339-0.192,0.743,0.44,1.268,0.544   c0.507,0.098,1.145,0.052,1.722,0c1.719-0.154,3.766-0.578,5.437-0.725c0.599-0.053,1.217,0.048,1.814,0   c2.459-0.197,4.716-0.558,7.159-0.363c0.731,0.059,1.421,0.299,2.175,0.363c0.88,0.075,1.805-0.072,2.719,0   c4.409,0.352,8.854,0.369,12.869-0.182c1.645,3.988,3.31,8.61,5.165,12.688c0.63,1.382,1.414,2.683,1.905,3.988   c0.994,2.646,1.601,5.907,2.084,9.334c0.135,0.964,0.649,2.527,0.451,3.263c-0.182,0.689-1.544,1.195-2.174,1.631   c-0.837,0.582-1.4,1.137-1.993,1.721c-0.282,0.009-0.258-0.285-0.636-0.182c-3.652,3.038-7.986,5.754-11.962,8.609   c-0.474,0.339-1.417,0.672-1.269,1.452c0.921,0.309,1.701-0.626,2.358-1.091c2.122-1.493,4.348-3.287,6.706-4.619   c-3.626,3.321-7.927,6.756-11.6,10.332c-0.026,0.92-0.432,2.082,0.09,2.783C40.019,85.503,39.588,87.33,39.022,89.557z    M53.522,69.673c-0.112-0.238,0.511-0.514,0.725-0.725C54.426,68.922,53.679,69.438,53.522,69.673z M61.316,90.879   c-0.163,0.259-0.157,0.687-0.362,0.906c-3.244,2.401-8.438,1.354-11.69-0.544c-1.532-0.893-3.168-1.641-3.989-2.536   c-0.749-0.821-1.214-1.786-1.902-3.083c-0.451-0.845-1.478-2.742-1.36-3.625c0.068-0.524,1.223-1.366,1.903-1.992   c1.468-1.355,2.71-2.323,4.169-3.535c0.72-0.597,1.256-1.31,1.904-1.904c1.283-1.174,2.856-2.302,4.349-3.351   c1.508-1.06,2.701-2.678,3.897-3.806c1.131-1.068,2.723-2.109,4.168-3.081c1.582-1.066,3.024-2.248,4.44-3.084   c0.155-0.032,0.173,0.072,0.183,0.183c-2.91,3.046-5.96,6.217-8.971,9.154c-0.788,0.768-2.276,1.12-2.267,2.537   c0.68,0.296,1.138-0.469,1.541-0.816c3.527-3.023,6.865-6.69,10.241-9.969c-0.037,0.428,0.162,0.624,0.089,1.088   c-2.538,2.263-4.401,5.203-6.977,7.43c-0.17,0.132-0.012,0.593-0.182,0.724c-3.418,2.449-7.107,4.577-10.239,7.431   c-0.494,0.449-1.059,0.858-1.632,1.27c-0.508,0.361-1.391,0.71-1.359,1.54c0.868,0.25,1.744-0.53,2.354-0.996   c0.677-0.516,1.271-1.208,1.906-1.724c3.963-3.226,8.605-6.061,12.778-9.153c0.645,3.733,1.443,7.809,1.902,11.873   c0.053,0.47-0.184,1.248,0.452,1.451c0.824-0.178,0.409-1.215,0.363-1.721c-0.351-3.983-1.157-7.638-1.813-11.33   c-0.1-0.558-0.287-1.189,0.361-1.448c1.347,2.148,1.911,5.912,2.267,9.424c0.149,1.473-0.221,3.735,1.086,3.988   C66.571,85.255,63.894,88.019,61.316,90.879z M69.111,81.816c-0.723-4.251-0.574-9.412-2.176-12.688   c-0.161-0.328-0.285-0.702-0.724-0.814c0.319-0.536,1.242-0.918,0.906-1.812c-0.856-0.146-1.412,1.084-2.086,1.63   c-0.185,0.152-0.981,0.658-0.905,0.453c1.257-1.253,2.206-2.808,3.625-3.898c-0.067,0.58-0.445,0.781-0.363,1.815   c0.226,2.87,1.443,6.609,1.813,9.876c0.121,1.072,0.01,2.331,0.725,3.083c0.895-0.215,0.345-1.297,0.271-1.903   c-0.094-0.768-0.083-1.699-0.181-2.358c-0.464-3.059-1.496-6.418-1.631-9.334c0.3-0.183,0.868,0.141,1.449,0.272   c0.567,0.128,1.254,0.153,1.631,0.453c0.402,0-0.148,0.318-0.181,0.453c0.752,2.661,1.421,5.405,1.813,8.429   c0.016,0.373,0.445,0.338,0.544,0.633C72.155,77.974,70.823,80.48,69.111,81.816z M70.38,84.353   c1.589-1.22,3.125-2.491,4.348-4.077c-0.696-0.908-1.617,0.349-2.173,0.905c-0.301,0.299-0.591,0.693-0.909,0.997   c-0.261,0.251-0.754,0.77-0.815,0.544c1.446-1.302,2.321-3.177,3.625-4.622c0.323,1.098,0.493,2.348,0.453,3.807   C73.986,83.308,72.261,83.91,70.38,84.353z M80.167,65.141c-0.32,1.681-0.209,3.377-0.997,4.622c-0.585,0.924-1.857,1.9-2.627,2.81   c-0.899,1.059-1.536,2.194-2.539,2.9c-0.351-3.155-1.102-5.905-1.813-8.701c0.507,0.16,0.755,0.576,1.36,0.635   c0.036,0.868,0.249,1.462,0.452,2.448c0.135,0.642,0.159,2.029,0.908,1.903c0.873-0.151-0.459-3.075-0.363-3.807   c1.029,0.36,1.367,1.41,2.355,1.812c1.025-1.08-1.394-2.237-2.175-2.808c-0.365-1.459,0.343-3.526-0.814-4.259   c-0.843,0.751,0.085,2.366-0.183,3.715c-0.766-1.169,0.151-4.099-0.816-4.985c-0.808,0.485-0.525,1.694-0.453,2.808   c0.035,0.52,0.16,1.063,0.094,1.632c-0.639-0.798-0.427-2.634-0.546-3.986c-0.037-0.433-0.073-0.879-0.272-1.179   c0.004-0.088,0.111-0.07,0.181-0.09C75.124,61.665,78.062,62.984,80.167,65.141z M86.511,54.538   c-2.633,2.21-6.287,4.535-8.792,6.616c-0.844-0.424-1.681-0.856-2.538-1.269c1.239-1.775,3.463-3.122,5.438-4.803   c1.954-1.663,3.534-3.637,5.71-4.712c0.686-0.34,1.381-0.477,2.264-0.183C88.982,51.873,87.539,53.673,86.511,54.538z">
			</path>
		</g>
	</g>
	<g id="SvgjsG1294" featurekey="nameFeature-0" transform="matrix(0.9435742973333112,0,0,0.9435742973333112,119.43385686138014,27.771654472928894)" fill="#4a4a4a">
		<path d="M24 34.72 c2.36 3.24 3.88 4.12 5.96 5.16 l0 0.12 l-8.64 0 l0 -0.68 l-7.52 -10.6 l-4.68 0 l0 9 c0 1.44 1.4 1.88 3.04 2.08 l0 0.2 l-11.56 0 l0 -0.2 c1.64 -0.2 3.04 -0.64 3.04 -2.08 l0 -23.44 c0 -1.44 -1.4 -1.88 -3.04 -2.08 l0 -0.2 l15.08 0 c7.16 0 11.28 2.36 11.28 7.56 c0 4 -2.96 7.2 -7.8 8.52 z M9.12 12.719999999999999 l0 14.44 c2.08 0.6 4.28 0.92 6.36 0.92 c4.04 0 6.08 -1.32 6.08 -6.88 c0 -4.24 -1.2 -8.48 -8.04 -8.48 l-4.4 0 z M50.400000000000006 36.08 l0.2 0.16 c-1.2 2.24 -4.44 4.04 -8.68 4.04 c-6.4 0 -10.76 -3.96 -10.76 -9.68 c0 -6.44 5.56 -10.24 11.52 -10.24 c8.64 0 9.36 8.52 4.24 8.52 l-10.56 0 c0.08 5.68 3.32 9.44 8.12 9.44 c1.92 0 4.68 -0.6 5.92 -2.24 z M41.36 21 c-2.72 0 -4.84 2.72 -5 7.2 l8.04 -0.08 c2.72 -0.04 1.6 -7.12 -3.04 -7.12 z M63.800000000000004 40.28 c-6.36 0 -10.72 -3.96 -10.72 -9.72 c0 -6.4 5.36 -10.2 11.6 -10.2 c3.52 0 5.92 1.24 7.16 2.68 l-4 6 l-0.08 0 c1.8 -5.4 -1.2 -8.04 -4.12 -8.08 c-2.84 0 -5.36 2.4 -5.36 7.32 c0 5.64 3.28 10.04 8.16 10.04 c1.64 0 3.92 -0.52 5.16 -2.08 l0.2 0.16 c-1.2 2.16 -3.88 3.88 -8 3.88 z M78.44000000000001 17.44 c-1.64 0 -2.92 -1.28 -2.92 -2.96 c0 -1.64 1.28 -2.92 2.92 -2.92 s2.92 1.28 2.92 2.92 c0 1.68 -1.28 2.96 -2.92 2.96 z M75.84 40 l0.24 -2.76 l0 -15.36 c-0.56 -0.36 -1.6 -0.64 -2.44 -0.72 l0 -0.16 l7.72 -0.6 l-0.2 2.96 l0 12.92 c0 2.16 0.36 2.92 1.56 3.72 l-6.88 0 z M96.20000000000002 20.36 c7.44 0 11.16 4.08 11.16 9.56 c0 6.4 -5 10.36 -11.72 10.36 c-1.48 0 -2.64 -0.24 -3.6 -0.52 l0 5.04 c0 2.16 0.36 2.92 2.16 3.72 l0 0.12 l-9.04 -1.32 l0 -0.12 c1.4 -0.36 1.8 -1.04 1.8 -3.04 l0 -21.32 c-0.56 -0.36 -1.6 -0.64 -2.64 -0.72 l0 -0.16 c4.24 -1.2 9.48 -1.6 11.88 -1.6 z M97.20000000000002 39.56 c3.2 0 4.96 -2.44 4.96 -7.52 c0 -5.44 -2.16 -11.04 -7.32 -11.04 c-1.32 0 -2.28 0.36 -2.8 0.52 l0 15.92 c1.56 1.24 3.24 2.12 5.16 2.12 z M129.8 36.08 l0.2 0.16 c-1.2 2.24 -4.44 4.04 -8.68 4.04 c-6.4 0 -10.76 -3.96 -10.76 -9.68 c0 -6.44 5.56 -10.24 11.52 -10.24 c8.64 0 9.36 8.52 4.24 8.52 l-10.56 0 c0.08 5.68 3.32 9.44 8.12 9.44 c1.92 0 4.68 -0.6 5.92 -2.24 z M120.76 21 c-2.72 0 -4.84 2.72 -5 7.2 l8.04 -0.08 c2.72 -0.04 1.6 -7.12 -3.04 -7.12 z M159.32 34.96 c1.44 3.68 2.16 4.64 3.96 4.88 l0 0.16 l-12.64 0 l0 -0.16 c2.8 -0.24 4.4 -1.12 3 -4.64 l-0.8 -2 l-15.28 0 l-0.88 2 c-1.48 3.44 0.12 4.16 2.36 4.64 l0 0.16 l-7.36 0 l0 -0.16 c1.68 -0.48 2.64 -1.24 4.12 -4.68 l8.76 -20.2 l-0.08 -1.16 l0.76 -0.44 l4.72 -2.52 c0 0.24 0.08 0.72 0.92 2.8 z M137.84 32.480000000000004 l14.72 0 l-7.08 -17.64 z M176.35999999999999 20.36 c7.44 0 11.16 4.08 11.16 9.56 c0 6.4 -5 10.36 -11.72 10.36 c-1.48 0 -2.64 -0.24 -3.6 -0.52 l0 5.04 c0 2.16 0.36 2.92 2.16 3.72 l0 0.12 l-9.04 -1.32 l0 -0.12 c1.4 -0.36 1.8 -1.04 1.8 -3.04 l0 -21.32 c-0.56 -0.36 -1.6 -0.64 -2.64 -0.72 l0 -0.16 c4.24 -1.2 9.48 -1.6 11.88 -1.6 z M177.35999999999999 39.56 c3.2 0 4.96 -2.44 4.96 -7.52 c0 -5.44 -2.16 -11.04 -7.32 -11.04 c-1.32 0 -2.28 0.36 -2.8 0.52 l0 15.92 c1.56 1.24 3.24 2.12 5.16 2.12 z M201.39999999999998 20.36 c7.44 0 11.16 4.08 11.16 9.56 c0 6.4 -5 10.36 -11.72 10.36 c-1.48 0 -2.64 -0.24 -3.6 -0.52 l0 5.04 c0 2.16 0.36 2.92 2.16 3.72 l0 0.12 l-9.04 -1.32 l0 -0.12 c1.4 -0.36 1.8 -1.04 1.8 -3.04 l0 -21.32 c-0.56 -0.36 -1.6 -0.64 -2.64 -0.72 l0 -0.16 c4.24 -1.2 9.48 -1.6 11.88 -1.6 z M202.39999999999998 39.56 c3.2 0 4.96 -2.44 4.96 -7.52 c0 -5.44 -2.16 -11.04 -7.32 -11.04 c-1.32 0 -2.28 0.36 -2.8 0.52 l0 15.92 c1.56 1.24 3.24 2.12 5.16 2.12 z">
		</path>
	</g>
</svg>
